Coordinates
version=1
nRows=32
nColumns=12
inDegrees=yes

Units are S.I. units (second, meters, Newtons, ...)
Angles are in degrees

endheader
time	SC_y	SC_z	SC_x	AC_y	AC_z	AC_x	GH_y	GH_z	GH_yy	EL_x	PS_y
       0.0              -13.73          15.62          54.09          42.04         -18.78          11.54         -163.5          69.62         -134.7          46.33          98.13
   0.03216              -13.73          15.62          54.09          42.04         -18.77          11.54         -163.4          69.62         -134.7          46.33          98.13
   0.06432              -13.73          15.62           54.1          42.04         -18.77          11.54         -163.4          69.62         -134.6          46.34          98.14
   0.09648              -13.74          15.61           54.1          42.04         -18.76          11.54         -163.3          69.62         -134.6          46.35          98.14
    0.1286              -13.74          15.61           54.1          42.04         -18.76          11.54         -163.3          69.62         -134.6          46.35          98.14
    0.1608              -13.74          15.61           54.1          42.05         -18.76          11.54         -163.2          69.62         -134.5          46.36          98.15
     0.193              -13.75          15.61          54.11          42.05         -18.75          11.54         -163.2          69.62         -134.5          46.37          98.15
    0.2251              -13.75           15.6          54.11          42.05         -18.75          11.54         -163.1          69.62         -134.5          46.38          98.16
    0.2573              -13.76           15.6          54.11          42.05         -18.74          11.54         -163.1          69.62         -134.4          46.39          98.16
    0.2895              -13.76           15.6          54.12          42.06         -18.73          11.54         -163.0          69.62         -134.4           46.4          98.17
    0.3216              -13.76           15.6          54.12          42.06         -18.73          11.54         -162.9          69.62         -134.3          46.41          98.17
    0.3538              -13.77          15.59          54.12          42.06         -18.72          11.54         -162.8          69.62         -134.3          46.42          98.18
    0.3859              -13.77          15.59          54.13          42.07         -18.71          11.54         -162.8          69.62         -134.2          46.43          98.19
    0.4181              -13.78          15.59          54.13          42.07          -18.7          11.54         -162.7          69.62         -134.2          46.44          98.19
    0.4503              -13.79          15.58          54.14          42.08         -18.69          11.54         -162.6          69.62         -134.1          46.46           98.2
    0.4824              -13.79          15.58          54.14          42.08         -18.68          11.54         -162.5          69.62         -134.0          46.47          98.21
    0.5146               -13.8          15.57          54.15          42.09         -18.67          11.54         -162.4          69.62         -134.0          46.49          98.22
    0.5467              -13.81          15.57          54.15          42.09         -18.66          11.54         -162.2          69.62         -133.9          46.51          98.23
    0.5789              -13.82          15.56          54.16           42.1         -18.65          11.54         -162.1          69.62         -133.8          46.52          98.24
    0.6111              -13.83          15.55          54.17           42.1         -18.64          11.54         -161.9          69.62         -133.7          46.55          98.25
    0.6432              -13.84          15.55          54.18          42.11         -18.62          11.54         -161.8          69.62         -133.6          46.57          98.27
    0.6754              -13.85          15.54          54.19          42.12          -18.6          11.54         -161.6          69.62         -133.5           46.6          98.28
    0.7075              -13.86          15.53           54.2          42.13         -18.58          11.54         -161.4          69.62         -133.3          46.62           98.3
    0.7397              -13.88          15.52          54.21          42.14         -18.56          11.54         -161.2          69.62         -133.2          46.66          98.32
    0.7719              -13.89          15.51          54.22          42.15         -18.54          11.54         -160.9          69.62         -133.0          46.69          98.34
     0.804              -13.91           15.5          54.24          42.16         -18.52          11.54         -160.7          69.62         -132.9          46.73          98.36
    0.8362              -13.93          15.49          54.25          42.17         -18.49          11.54         -160.4          69.63         -132.7          46.77          98.39
    0.8684              -13.95          15.47          54.27          42.19         -18.45          11.54         -160.0          69.63         -132.4          46.82          98.41
    0.9005              -13.98          15.46          54.29          42.21         -18.42          11.54         -159.6          69.63         -132.2          46.88          98.45
    0.9327               -14.0          15.44          54.31          42.23         -18.38          11.54         -159.2          69.63         -131.9          46.94          98.48
    0.9648              -14.04          15.42          54.34          42.25         -18.33          11.54         -158.7          69.63         -131.6          47.02          98.52
     0.997              -14.07          15.39          54.37          42.27         -18.28          11.54         -158.1          69.63         -131.2           47.1          98.57
